<?xml version="1.0" standalone="no"?>
<!DOCTYPE svg PUBLIC "-//W3C//DTD SVG 20010904//EN"
 "http://www.w3.org/TR/2001/REC-SVG-20010904/DTD/svg10.dtd">
<svg version="1.0" xmlns="http://www.w3.org/2000/svg"
 width="1000.000000pt" height="1000.000000pt" viewBox="0 0 1000.000000 1000.000000"
 preserveAspectRatio="xMidYMid meet">
<metadata>
Created by potrace 1.14, written by Peter Selinger 2001-2017
</metadata>
<g transform="translate(0.000000,1000.000000) scale(0.100000,-0.100000)"
fill="#000000" stroke="none">
<path d="M1034 6436 c-14 -36 0 -51 49 -54 l48 -3 -7 -360 -7 -359 151 0 c83
0 153 -3 155 -7 2 -5 2 -38 -1 -75 l-4 -68 -184 0 -184 0 0 -35 0 -35 144 0
c79 0 151 -3 160 -6 17 -7 21 -50 9 -118 l-6 -38 -129 7 c-84 5 -133 4 -141
-3 -8 -7 -12 -43 -12 -109 l0 -98 119 -3 119 -3 -7 -52 c-3 -29 -6 -63 -6 -75
0 -24 0 -24 -94 -17 -141 11 -137 14 -134 -113 l3 -107 145 0 145 0 -3 -65
c-1 -36 -5 -71 -7 -78 -4 -10 -38 -13 -147 -11 l-143 1 0 -28 0 -29 130 -5
c169 -7 212 -28 258 -130 24 -54 28 -192 8 -255 -20 -61 -67 -130 -109 -158
-45 -32 -138 -57 -207 -57 l-52 0 5 -134 5 -135 -34 -3 c-32 -3 -34 -5 -37
-46 l-3 -42 788 2 788 3 3 33 c2 18 -3 40 -10 49 -7 8 -43 79 -79 157 l-67
141 -47 3 c-29 2 -51 -1 -55 -8 -4 -7 -5 -74 -2 -151 l5 -139 -82 0 -82 0 5
198 c2 109 1 204 -3 210 -5 9 -34 12 -96 10 -86 -3 -89 -4 -95 -28 l-6 -25
-112 4 c-79 2 -117 -1 -127 -9 -16 -14 -20 -91 -8 -175 l6 -47 159 7 158 7 0
-76 0 -76 -238 0 -238 0 -2 440 c-1 383 0 440 13 440 10 0 15 10 15 30 l0 30
-74 0 -74 0 -1 435 -1 435 72 0 73 0 -3 -362 c-2 -227 0 -359 6 -353 5 6 12
180 16 403 l6 392 -91 0 c-83 0 -91 2 -84 18 4 9 46 134 95 277 l88 260 3 190
4 190 -308 3 c-262 2 -308 0 -313 -12z"/>
<path d="M2632 6418 l3 -33 80 -6 c86 -7 145 -27 184 -62 58 -54 78 -165 42
-242 -18 -41 -81 -105 -104 -105 -7 -1 11 -12 40 -26 90 -44 131 -118 120
-216 -16 -135 -107 -206 -291 -226 -57 -7 -61 -9 -61 -32 l0 -25 125 -5 125
-5 0 -75 0 -75 -85 0 -85 0 -3 -362 -2 -363 -30 0 -30 0 0 -61 c0 -46 6 -70
25 -103 73 -125 42 -318 -66 -404 l-30 -24 37 -66 c20 -37 61 -107 92 -155 63
-102 62 -107 -28 -129 -54 -13 -55 -14 -58 -51 l-3 -37 1168 2 1167 3 9 39 c6
24 6 41 0 45 -5 3 -77 138 -159 299 l-149 293 -3 -296 -2 -295 -71 0 -71 0 2
143 c1 78 1 162 1 187 -2 42 -3 43 -14 20 l-11 -25 -3 25 c-2 14 -12 36 -22
49 -17 22 -22 23 -89 16 -40 -4 -72 -11 -72 -17 0 -8 82 -331 96 -381 5 -16
-2 -18 -77 -15 l-82 3 -18 89 c-10 48 -19 90 -21 92 -10 9 -152 16 -211 10
l-65 -7 -11 -42 c-6 -23 -14 -64 -19 -92 l-7 -50 -78 -3 c-51 -2 -77 1 -77 8
0 11 24 98 78 282 16 54 28 99 26 100 -1 2 -50 2 -109 0 l-106 -3 5 -47 c3
-26 8 -78 10 -117 3 -38 8 -105 12 -147 l6 -78 -70 0 -70 0 -6 68 c-3 37 -8
124 -12 195 l-6 127 -48 0 -48 0 -49 -150 -48 -150 -65 0 -66 0 -74 250 c-40
138 -76 250 -80 250 -6 0 -27 -221 -37 -385 -2 -44 -6 -91 -8 -105 -2 -14 -4
-42 -4 -63 l-1 -38 -67 3 -68 3 3 30 c1 17 11 136 22 265 11 129 27 309 35
400 8 91 15 166 15 168 0 1 42 2 94 2 l94 0 7 -32 c14 -73 110 -408 117 -408
4 0 5 46 2 103 -3 56 -6 170 -7 252 l-2 150 -55 3 -55 3 0 362 0 362 -86 -3
c-64 -2 -88 1 -91 10 -2 7 -2 42 1 78 l6 65 148 3 147 3 0 62 c0 58 -3 66 -31
93 -40 37 -83 124 -98 194 -28 132 -7 324 46 422 131 241 561 246 683 8 28
-54 50 -145 50 -202 0 -54 -1 -54 83 -62 l59 -6 -4 215 -3 216 225 -4 c124 -2
234 -6 245 -8 27 -6 30 22 5 54 l-21 27 -920 0 -920 0 3 -32z"/>
<path d="M5342 6433 c-5 -10 -21 -55 -36 -100 l-27 -81 24 -84 c14 -45 62
-204 107 -353 45 -148 85 -278 87 -287 5 -16 -4 -18 -91 -18 l-96 0 -1 28 c0
15 -8 56 -17 92 -17 63 -18 64 -57 73 -22 4 -62 6 -90 5 l-50 -3 -42 -120
c-23 -66 -42 -128 -42 -137 -1 -15 8 -18 63 -18 l64 0 32 -132 c45 -191 96
-404 110 -468 20 -88 25 -88 53 -3 21 62 27 97 27 168 0 167 42 295 122 376
43 44 48 57 118 273 60 184 77 226 92 226 17 0 18 13 18 186 l0 187 -109 -6
c-79 -4 -112 -2 -118 6 -5 7 -7 40 -5 75 l4 62 298 0 c170 0 301 4 304 9 4 5
2 21 -4 35 l-10 26 -359 0 c-333 0 -361 -1 -369 -17z"/>
<path d="M7165 6440 l-260 -5 3 -145 c2 -80 8 -165 14 -190 12 -56 12 -219 0
-284 -6 -26 -7 -121 -4 -211 l5 -162 55 -18 55 -17 -7 -51 c-3 -29 -6 -61 -6
-73 0 -11 -6 -29 -14 -39 -13 -18 -14 -18 -41 3 -15 12 -32 22 -36 22 -5 0 -9
-50 -9 -111 l0 -110 44 -40 c64 -58 90 -124 84 -214 -6 -81 -30 -137 -84 -189
-29 -28 -35 -40 -32 -68 l3 -33 135 -5 135 -5 3 -45 c2 -24 1 -59 -3 -77 l-6
-32 -95 6 -95 6 1 -364 1 -364 -78 0 -78 0 3 120 4 120 -67 220 c-37 121 -70
228 -72 238 -4 11 -15 17 -33 17 -16 0 -30 4 -32 10 -1 5 -1 42 2 82 6 92 -5
135 -41 154 -26 13 -27 16 -22 69 5 47 -1 78 -43 215 -27 87 -50 158 -51 156
-2 -2 -6 -59 -9 -127 -6 -161 -24 -220 -84 -280 -100 -100 -289 -101 -388 -2
l-43 44 -67 -3 c-45 -2 -67 -7 -68 -15 -1 -7 -2 -22 -3 -34 -2 -32 -81 -63
-166 -63 -88 -1 -149 21 -200 74 -37 38 -42 40 -98 40 -47 0 -58 -3 -54 -14 3
-8 9 -31 13 -51 l6 -36 -73 3 -73 3 -13 80 c-7 44 -15 86 -18 93 -3 9 -38 12
-129 12 l-124 0 -17 -95 -17 -95 -69 0 c-49 0 -69 4 -69 13 0 6 11 53 24 102
13 50 22 92 20 94 -6 7 -7 5 -53 -137 l-43 -133 148 -294 c82 -162 153 -295
158 -295 5 0 6 112 2 276 -5 204 -4 280 5 290 8 9 33 14 78 14 l66 0 -3 -150
-4 -151 94 3 93 3 1 150 0 150 241 3 c187 2 242 0 245 -10 2 -7 2 -42 -1 -78
l-6 -65 -156 4 -157 3 -4 -68 c-3 -38 -2 -72 1 -75 3 -4 104 -9 224 -11 l217
-5 0 149 0 148 88 0 87 0 105 -208 c57 -114 125 -245 150 -292 l45 -85 5 290
5 290 74 3 74 3 -7 -62 c-3 -34 -6 -230 -6 -435 l0 -374 -84 0 -85 0 -37 70
c-21 38 -40 68 -42 65 -4 -4 24 -171 34 -207 5 -17 42 -18 595 -18 l590 0 -3
43 -3 42 -100 3 -100 3 1 437 2 437 233 3 c222 2 234 1 249 -17 14 -19 22 -19
120 -11 58 5 159 22 225 37 117 27 119 28 75 34 -120 18 -185 57 -235 143 -23
40 -51 133 -57 191 -3 28 -6 30 -52 36 -36 4 -49 2 -53 -9 -3 -8 -3 -88 0
-178 l5 -164 -75 0 -74 0 3 178 3 177 -94 9 -94 9 4 176 4 176 -47 3 -48 3 0
-365 0 -366 -70 0 -70 0 0 366 0 367 -91 -8 -90 -7 3 79 3 78 205 2 205 2 3
54 c3 50 -2 62 -69 186 l-72 132 -61 -3 -61 -3 4 -147 4 -148 -94 0 -94 0 0
436 0 435 225 -3 c208 -3 228 -5 265 -25 51 -27 90 -68 110 -117 21 -50 22
-160 2 -208 -9 -21 -13 -39 -9 -41 4 -2 54 -2 110 1 l104 4 -4 194 -3 194 93
0 92 0 0 -213 0 -214 50 -23 c28 -13 56 -30 61 -37 20 -23 27 -5 28 68 2 136
46 261 115 328 17 16 56 43 86 60 52 29 53 30 30 39 -44 17 -172 42 -265 52
-90 10 -507 10 -990 0z"/>
<path d="M6108 6268 l-3 -33 -107 4 -107 3 -4 -108 c-2 -60 -3 -225 -1 -366
l2 -258 -34 0 c-19 0 -34 -3 -34 -7 0 -5 9 -35 19 -68 11 -33 37 -123 57 -200
21 -77 42 -144 47 -150 5 -6 6 60 2 168 l-7 177 76 0 77 0 -2 -312 c-3 -287
-2 -316 15 -351 25 -51 65 -70 133 -65 62 5 98 32 114 87 7 23 9 146 7 339 -2
237 0 302 10 302 15 0 15 3 0 52 -8 26 -21 44 -40 54 -84 43 -154 144 -177
254 -15 71 -15 201 0 292 11 67 10 79 -11 146 -12 39 -23 72 -25 72 -2 0 -5
-15 -7 -32z"/>
<path d="M2634 6237 c-2 -7 -3 -60 -2 -118 3 -98 4 -104 25 -107 32 -5 80 24
98 58 17 34 20 102 4 132 -20 36 -114 63 -125 35z"/>
<path d="M3394 6231 c-22 -10 -50 -31 -62 -46 -29 -36 -52 -116 -52 -177 l0
-48 205 0 205 0 0 42 c0 67 -30 156 -64 193 -52 55 -155 71 -232 36z"/>
<path d="M4218 6243 c-16 -4 -18 -20 -18 -149 l0 -144 76 0 c61 0 82 4 105 21
42 30 59 69 59 138 0 48 -4 65 -24 88 -36 43 -129 64 -198 46z"/>
<path d="M7268 6243 c-16 -4 -18 -20 -18 -148 l0 -143 63 -5 c115 -9 177 46
177 159 0 52 -4 67 -24 91 -36 43 -129 64 -198 46z"/>
<path d="M8494 6231 c-82 -37 -115 -116 -115 -277 0 -211 49 -299 179 -320 58
-9 144 19 176 57 40 47 57 120 57 242 0 132 -21 215 -65 262 -52 55 -155 71
-232 36z"/>
<path d="M5177 5950 c-8 -19 -18 -50 -22 -67 l-7 -33 41 0 c46 0 45 -4 16 93
l-13 42 -15 -35z"/>
<path d="M2640 5755 l0 -125 30 0 c44 0 107 35 125 70 46 89 -14 180 -120 180
l-35 0 0 -125z"/>
<path d="M8925 5690 c-70 -136 -196 -197 -385 -188 -88 4 -108 9 -161 36 l-60
31 3 -65 3 -66 38 -13 c64 -22 66 -25 51 -111 -7 -42 -15 -79 -18 -81 -2 -2
-21 7 -41 22 -21 14 -43 25 -49 25 -6 0 -19 -22 -28 -48 -26 -72 -89 -164
-144 -208 -27 -21 -52 -43 -55 -48 -17 -23 22 -177 57 -223 45 -59 134 -66
223 -17 24 13 45 24 47 24 2 0 4 -34 4 -75 0 -41 3 -75 8 -75 4 0 31 14 60 31
40 22 52 35 48 47 -42 129 -48 164 -51 277 -6 238 62 396 198 456 65 28 172
31 231 6 31 -14 41 -15 48 -5 9 16 9 243 -1 278 -7 25 -7 25 -26 -10z"/>
<path d="M8745 5293 c-36 -9 -66 -36 -86 -75 -25 -48 -42 -188 -34 -277 7 -77
24 -161 33 -160 13 1 108 121 150 189 42 70 102 207 102 236 0 56 -93 105
-165 87z"/>
<path d="M3245 5057 c-4 -111 -5 -220 -3 -242 l3 -40 145 0 145 0 -3 235 c-2
129 -5 235 -5 236 -1 1 -63 4 -138 7 l-137 7 -7 -203z"/>
<path d="M4008 5167 c-4 -82 -9 -102 -38 -156 -19 -34 -45 -71 -58 -82 l-25
-20 29 -61 c40 -85 44 -88 126 -88 l70 0 -6 26 c-35 137 -26 351 19 457 6 15
0 17 -53 17 l-59 0 -5 -93z"/>
<path d="M3679 5248 c0 -2 -3 -58 -6 -125 l-5 -123 62 0 c53 0 64 3 85 26 14
15 30 45 36 68 11 39 7 125 -6 146 -5 8 -163 15 -166 8z"/>
<path d="M5033 5213 c-43 -153 -76 -303 -69 -310 8 -9 151 -11 160 -3 5 6 -66
335 -75 344 -3 3 -10 -11 -16 -31z"/>
<path d="M3674 4851 c-2 -2 -4 -22 -4 -43 l0 -38 65 0 65 0 -15 36 c-8 20 -15
38 -15 39 0 5 -91 10 -96 6z"/>
<path d="M1123 4353 c-23 -4 -23 -7 -23 -164 l0 -159 53 0 c93 0 144 50 154
154 6 63 -13 122 -48 149 -27 19 -94 30 -136 20z"/>
<path d="M7476 4339 c-9 -26 -1 -199 9 -199 13 0 19 190 6 203 -7 7 -12 6 -15
-4z"/>
<path d="M4049 4023 c-56 -4 -68 -14 -69 -55 0 -5 43 -8 95 -8 52 0 95 4 95 9
0 31 -21 61 -42 59 -13 -1 -48 -3 -79 -5z"/>
<path d="M3234 3988 c10 -52 19 -53 31 0 6 28 4 32 -15 32 -20 0 -22 -4 -16
-32z"/>
<path d="M7475 3978 c-3 -8 -4 -59 -3 -114 3 -85 5 -99 21 -102 16 -3 17 6 15
109 -2 79 -7 114 -15 117 -7 2 -15 -3 -18 -10z"/>
</g>
</svg>
